<svg id="Layer_1" data-name="Layer 1" 
    xmlns="http://www.w3.org/2000/svg" viewBox="0 0 633.57 633.57">
    <defs>
        <style>
        .cls-1{fill:#e7e7e7;}
        .cls-2{fill:#426b83;}
        .cls-15,.cls-3,.cls-7,.cls-8{fill:#fff;}
        .cls-4{fill:#5a8f9c;}
        .cls-5{fill:#a0c0cf;}
        .cls-6{fill:#b3d1d9;}
        .cls-15,.cls-7,.cls-8{font-size:49.67px;font-family: Rockwell;}
        .cls-7{letter-spacing:0em;}
        .cls-9{fill:#f5c97d;}
        .cls-10{fill:#efbd59;}
        .cls-11{fill:#f3c97e;}
        .cls-12{fill:#426b84;}
        .cls-13{fill:#4d7a8e;}
        .cls-14{fill:#eb8269;}
        .cls-15{letter-spacing:0em;}
        .cls-16{fill:#e87353;}
        .cls-17{fill:#e98572;}
        .cls-18{fill:#ecba57;}
        .cls-19{fill:#b0d0d9;}
        .cls-20{fill:none;stroke:#2b4fa2;stroke-miterlimit:2.61;stroke-width:0px;sstroke-dasharray:8.4 8.4;}</style>
    </defs>
    <title>icon-3</title>
    <polygon class="cls-1" points="0 633.57 633.57 633.57 633.57 0 0 0 0 633.57 0 633.57"/>
    <path class="cls-2" d="M181.81,632.31a26.11,26.11,0,0,1-26.08-26.08V495.46a26.11,26.11,0,0,1,26.08-26.08H548.14a26.11,26.11,0,0,1,26.08,26.08V606.23a26.11,26.11,0,0,1-26.08,26.08Z" transform="translate(7 -91)"/>
    <path class="cls-3" d="M548.14,465.68H181.81A29.89,29.89,0,0,0,152,495.48V606.25a29.89,29.89,0,0,0,29.81,29.81H548.14a29.89,29.89,0,0,0,29.8-29.81V495.48a29.89,29.89,0,0,0-29.8-29.8Zm0,7.45a22.38,22.38,0,0,1,22.35,22.35V606.25a22.39,22.39,0,0,1-22.35,22.36H181.81a22.4,22.4,0,0,1-22.36-22.36V495.48a22.39,22.39,0,0,1,22.36-22.35Z" transform="translate(7 -91)"/>
    <path class="cls-4" d="M190.49,628.51h-.62v-6.23h.62v6.23Zm0-6.85h-.62V610.14h.62v11.52Zm0-12.14h-.62V598h.62v11.55Zm0-12.17h-.62V585.83h.62v11.52Zm0-12.14h-.62V573.68h.62v11.53Zm0-12.15h-.62V561.51h.62v11.55Zm0-12.17h-.62V549.37h.62v11.52Zm0-12.14h-.62V537.2h.62v11.55Zm0-12.17h-.62V525.05h.62v11.53Zm0-12.15h-.62V512.88h.62v11.55Zm0-12.17h-.62V500.74h.62v11.52Zm0-12.14h-.62V488.57h.62v11.55Zm0-12.17h-.62V476.42h.62V488Zm0-12.15h-.62v-2.67h.62v2.67Zm96.26,152.71h-.62v-6.23h.62v6.23Zm0-6.85h-.62V610.14h.62v11.52Zm0-12.14h-.62V598h.62v11.55Zm0-12.17h-.62V585.83h.62v11.52Zm0-12.14h-.62V573.68h.62v11.53Zm0-12.15h-.62V561.51h.62v11.55Zm0-12.17h-.62V549.37h.62v11.52Zm0-12.14h-.62V537.2h.62v11.55Zm0-12.17h-.62V525.05h.62v11.53Zm0-12.15h-.62V512.88h.62v11.55Zm0-12.17h-.62V500.74h.62v11.52Zm0-12.14h-.62V488.57h.62v11.55Zm0-12.17h-.62V476.42h.62V488Zm0-12.15h-.62v-2.67h.62v2.67Zm-72.82-2.67h.62v-.07h-.62v.07Zm60.78,155.38h-.62v-6.23h.62v6.23Zm0-6.85h-.62V610.14h.62v11.52Zm0-12.14h-.62V598h.62v11.55Zm0-12.17h-.62V585.83h.62v11.52Zm0-12.14h-.62V573.68h.62v11.53Zm0-12.15h-.62V561.51h.62v11.55Zm0-12.17h-.62V549.37h.62v11.52Zm0-12.14h-.62V537.2h.62v11.55Zm0-12.17h-.62V525.05h.62v11.53Zm0-12.15h-.62V512.88h.62v11.55Zm0-12.17h-.62V500.74h.62v11.52Zm0-12.14h-.62V488.57h.62v11.55Zm0-12.17h-.62V476.42h.62V488Zm0-12.15h-.62v-2.67h.62v2.67Zm-96.87-2.32v-.08l.62-.1v.08l-.62.1Zm0,154.69v-5.89h.62v6l-.62-.1Zm.62-6.51h-.62V610.14h.62v11.52Zm0-12.14h-.62V598h.62v11.55Zm0-12.17h-.62V585.83h.62v11.52Zm0-12.14h-.62V573.68h.62v11.53Zm0-12.15h-.62V561.51h.62v11.55Zm0-12.17h-.62V549.37h.62v11.52Zm0-12.14h-.62V537.2h.62v11.55Zm0-12.17h-.62V525.05h.62v11.53Zm0-12.15h-.62V512.88h.62v11.55Zm0-12.17h-.62V500.74h.62v11.52Zm0-12.14h-.62V488.57h.62v11.55Zm0-12.17h-.62V476.42h.62V488Zm0-12.15h-.62v-2.32l.62-.1v2.42Zm36.09,152.71h-.62v-6.23h.62v6.23Zm0-6.85h-.62V610.14h.62v11.52Zm0-12.14h-.62V598h.62v11.55Zm0-12.17h-.62V585.83h.62v11.52Zm0-12.14h-.62V573.68h.62v11.53Zm0-12.15h-.62V561.51h.62v11.55Zm0-12.17h-.62V549.37h.62v11.52Zm0-12.14h-.62V537.2h.62v11.55Zm0-12.17h-.62V525.05h.62v11.53Zm0-12.15h-.62V512.88h.62v11.55Zm0-12.17h-.62V500.74h.62v11.52Zm0-12.14h-.62V488.57h.62v11.55Zm0-12.17h-.62V476.42h.62V488Zm0-12.15h-.62v-2.67h.62v2.67Zm-12,152.71h-.62v-6.23h.62v6.23Zm0-6.85h-.62V610.14h.62v11.52Zm0-12.14h-.62V598h.62v11.55Zm0-12.17h-.62V585.83h.62v11.52Zm0-12.14h-.62V573.68h.62v11.53Zm0-12.15h-.62V561.51h.62v11.55Zm0-12.17h-.62V549.37h.62v11.52Zm0-12.14h-.62V537.2h.62v11.55Zm0-12.17h-.62V525.05h.62v11.53Zm0-12.15h-.62V512.88h.62v11.55Zm0-12.17h-.62V500.74h.62v11.52Zm0-12.14h-.62V488.57h.62v11.55Zm0-12.17h-.62V476.42h.62V488Zm0-12.15h-.62v-2.67h.62v2.67Zm36.11,152.71H238v-6.23h.62v6.23Zm0-6.85H238V610.14h.62v11.52Zm0-12.14H238V598h.62v11.55Zm0-12.17H238V585.83h.62v11.52Zm0-12.14H238V573.68h.62v11.53Zm0-12.15H238V561.51h.62v11.55Zm0-12.17H238V549.37h.62v11.52Zm0-12.14H238V537.2h.62v11.55Zm0-12.17H238V525.05h.62v11.53Zm0-12.15H238V512.88h.62v11.55Zm0-12.17H238V500.74h.62v11.52Zm0-12.14H238V488.57h.62v11.55Zm0-12.17H238V476.42h.62V488Zm0-12.15H238v-2.67h.62v2.67Zm-48.75-2.67h.62v-.07h-.62v.07Zm36.7,155.38H226v-6.23h.62v6.23Zm0-6.85H226V610.14h.62v11.52Zm0-12.14H226V598h.62v11.55Zm0-12.17H226V585.83h.62v11.52Zm0-12.14H226V573.68h.62v11.53Zm0-12.15H226V561.51h.62v11.55Zm0-12.17H226V549.37h.62v11.52Zm0-12.14H226V537.2h.62v11.55Zm0-12.17H226V525.05h.62v11.53Zm0-12.15H226V512.88h.62v11.55Zm0-12.17H226V500.74h.62v11.52Zm0-12.14H226V488.57h.62v11.55Zm0-12.17H226V476.42h.62V488Zm0-12.15H226v-2.67h.62v2.67Zm-24.68-2.67h.62v-.07h-.62v.07Zm60.17,0h.62v-.07h-.62v.07Zm-12,0h.62v-.07H250v.07ZM166.4,622.28h0v0l0,0Zm0-.62h-.62V610.14h.62v11.52Zm0-12.14h-.62V598h.62v11.55Zm0-12.17h-.62V585.83h.62v11.52Zm0-12.14h-.62V573.68h.62v11.53Zm0-12.15h-.62V561.51h.62v11.55Zm0-12.17h-.62V549.37h.62v11.52Zm0-12.14h-.62V537.2h.62v11.55Zm0-12.17h-.62V525.05h.62v11.53Zm0-12.15h-.62V512.88h.62v11.55Zm0-12.17h-.62V500.74h.62v11.52Zm0-12.14h-.62V488.57h.62v11.55Zm0-12.17h-.62V479.9c.2-.21.41-.41.62-.61V488Zm96.26,140.56h-.62v-6.23h.62v6.23Zm0-6.85h-.62V610.14h.62v11.52Zm0-12.14h-.62V598h.62v11.55Zm0-12.17h-.62V585.83h.62v11.52Zm0-12.14h-.62V573.68h.62v11.53Zm0-12.15h-.62V561.51h.62v11.55Zm0-12.17h-.62V549.37h.62v11.52Zm0-12.14h-.62V537.2h.62v11.55Zm0-12.17h-.62V525.05h.62v11.53Zm0-12.15h-.62V512.88h.62v11.55Zm0-12.17h-.62V500.74h.62v11.52Zm0-12.14h-.62V488.57h.62v11.55Zm0-12.17h-.62V476.42h.62V488Zm0-12.15h-.62v-2.67h.62v2.67ZM238,473.13h.62v-.07H238v.07Zm-12.05,0h.62v-.07H226v.07Zm24.69,155.38H250v-6.23h.62v6.23Zm0-6.85H250V610.14h.62v11.52Zm0-12.14H250V598h.62v11.55Zm0-12.17H250V585.83h.62v11.52Zm0-12.14H250V573.68h.62v11.53Zm0-12.15H250V561.51h.62v11.55Zm0-12.17H250V549.37h.62v11.52Zm0-12.14H250V537.2h.62v11.55Zm0-12.17H250V525.05h.62v11.53Zm0-12.15H250V512.88h.62v11.55Zm0-12.17H250V500.74h.62v11.52Zm0-12.14H250V488.57h.62v11.55Zm0-12.17H250V476.42h.62V488Zm0-12.15H250v-2.67h.62v2.67Zm23.45-2.67h.62v-.07h-.62v.07Zm12,0h.62v-.07h-.62v.07Zm12.64,155.38h-.62v-6.23h.62v6.23Zm0-6.85h-.62V610.14h.62v11.52Zm0-12.14h-.62V598h.62v11.55Zm0-12.17h-.62V585.83h.62v11.52Zm0-12.14h-.62V573.68h.62v11.53Zm0-12.15h-.62V561.51h.62v11.55Zm0-12.17h-.62V549.37h.62v11.52Zm0-12.14h-.62V537.2h.62v11.55Zm0-12.17h-.62V525.05h.62v11.53Zm0-12.15h-.62V512.88h.62v11.55Zm0-12.17h-.62V500.74h.62v11.52Zm0-12.14h-.62V488.57h.62v11.55Zm0-12.17h-.62V476.42h.62V488Zm0-12.15h-.62v-2.67h.62v2.67Zm-.62-2.67h.62v-.07h-.62v.07Zm12.67,155.38h-.62v-6.23h.62v6.23Zm0-6.85h-.62V610.14h.62v11.52Zm0-12.14h-.62V598h.62v11.55Zm0-12.17h-.62V585.83h.62v11.52Zm0-12.14h-.62V573.68h.62v11.53Zm0-12.15h-.62V561.51h.62v11.55Zm0-12.17h-.62V549.37h.62v11.52Zm0-12.14h-.62V537.2h.62v11.55Zm0-12.17h-.62V525.05h.62v11.53Zm0-12.15h-.62V512.88h.62v11.55Zm0-12.17h-.62V500.74h.62v11.52Zm0-12.14h-.62V488.57h.62v11.55Zm0-12.17h-.62V476.42h.62V488Zm0-12.15h-.62v-2.67h.62v2.67Zm-.62-2.67h.62v-.07h-.62v.07Zm12.64,155.38h-.62v-6.23h.62v6.23Zm0-6.85h-.62V610.14h.62v11.52Zm0-12.14h-.62V598h.62v11.55Zm0-12.17h-.62V585.83h.62v11.52Zm0-12.14h-.62V573.68h.62v11.53Zm0-12.15h-.62V561.51h.62v11.55Zm0-12.17h-.62V549.37h.62v11.52Zm0-12.14h-.62V537.2h.62v11.55Zm0-12.17h-.62V525.05h.62v11.53Zm0-12.15h-.62V512.88h.62v11.55Zm0-12.17h-.62V500.74h.62v11.52Zm0-12.14h-.62V488.57h.62v11.55Zm0-12.17h-.62V476.42h.62V488Zm0-12.15h-.62v-2.67h.62v2.67Zm-.62-2.67h.62v-.07h-.62v.07Zm12.66,155.38h-.62v-6.23h.62v6.23Zm0-6.85h-.62V610.14h.62v11.52Zm0-12.14h-.62V598h.62v11.55Zm0-12.17h-.62V585.83h.62v11.52Zm0-12.14h-.62V573.68h.62v11.53Zm0-12.15h-.62V561.51h.62v11.55Zm0-12.17h-.62V549.37h.62v11.52Zm0-12.14h-.62V537.2h.62v11.55Zm0-12.17h-.62V525.05h.62v11.53Zm0-12.15h-.62V512.88h.62v11.55Zm0-12.17h-.62V500.74h.62v11.52Zm0-12.14h-.62V488.57h.62v11.55Zm0-12.17h-.62V476.42h.62V488Zm0-12.15h-.62v-2.67h.62v2.67Zm-.62-2.67h.62v-.07h-.62v.07ZM346.9,628.51h-.62v-6.23h.62v6.23Zm0-6.85h-.62V610.14h.62v11.52Zm0-12.14h-.62V598h.62v11.55Zm0-12.17h-.62V585.83h.62v11.52Zm0-12.14h-.62V573.68h.62v11.53Zm0-12.15h-.62V561.51h.62v11.55Zm0-12.17h-.62V549.37h.62v11.52Zm0-12.14h-.62V537.2h.62v11.55Zm0-12.17h-.62V525.05h.62v11.53Zm0-12.15h-.62V512.88h.62v11.55Zm0-12.17h-.62V500.74h.62v11.52Zm0-12.14h-.62V488.57h.62v11.55Zm0-12.17h-.62V476.42h.62V488Zm0-12.15h-.62v-2.67h.62v2.67Zm-.62-2.67h.62v-.07h-.62v.07ZM359,628.51h-.62v-6.23H359v6.23Zm0-6.85h-.62V610.14H359v11.52Zm0-12.14h-.62V598H359v11.55Zm0-12.17h-.62V585.83H359v11.52Zm0-12.14h-.62V573.68H359v11.53Zm0-12.15h-.62V561.51H359v11.55Zm0-12.17h-.62V549.37H359v11.52Zm0-12.14h-.62V537.2H359v11.55Zm0-12.17h-.62V525.05H359v11.53Zm0-12.15h-.62V512.88H359v11.55Zm0-12.17h-.62V500.74H359v11.52Zm0-12.14h-.62V488.57H359v11.55ZM359,488h-.62V476.42H359V488Zm0-12.15h-.62v-2.67H359v2.67Zm-.62-2.67H359v-.07h-.62v.07Zm157,155.38h-.62v-6.23h.62v6.23Zm0-6.85h-.62V610.14h.62v11.52Zm0-12.14h-.62V598h.62v11.55Zm0-12.17h-.62V585.83h.62v11.52Zm0-12.14h-.62V573.68h.62v11.53Zm0-12.15h-.62V561.51h.62v11.55Zm0-12.17h-.62V549.37h.62v11.52Zm0-12.14h-.62V537.2h.62v11.55Zm0-12.17h-.62V525.05h.62v11.53Zm0-12.15h-.62V512.88h.62v11.55Zm0-12.17h-.62V500.74h.62v11.52Zm0-12.14h-.62V488.57h.62v11.55Zm0-12.17h-.62V476.42h.62V488Zm0-12.15h-.62v-2.67h.62v2.67Zm-12.64-2.67h.62v-.07h-.62v.07Zm.62,155.38h-.62v-6.23h.62v6.23Zm0-6.85h-.62V610.14h.62v11.52Zm0-12.14h-.62V598h.62v11.55Zm0-12.17h-.62V585.83h.62v11.52Zm0-12.14h-.62V573.68h.62v11.53Zm0-12.15h-.62V561.51h.62v11.55Zm0-12.17h-.62V549.37h.62v11.52Zm0-12.14h-.62V537.2h.62v11.55Zm0-12.17h-.62V525.05h.62v11.53Zm0-12.15h-.62V512.88h.62v11.55Zm0-12.17h-.62V500.74h.62v11.52Zm0-12.14h-.62V488.57h.62v11.55Zm0-12.17h-.62V476.42h.62V488Zm0-12.15h-.62v-2.67h.62v2.67Zm-12.67-2.67h.62v-.07h-.62v.07Zm.62,155.38h-.62v-6.23h.62v6.23Zm0-6.85h-.62V610.14h.62v11.52Zm0-12.14h-.62V598h.62v11.55Zm0-12.17h-.62V585.83h.62v11.52Zm0-12.14h-.62V573.68h.62v11.53Zm0-12.15h-.62V561.51h.62v11.55Zm0-12.17h-.62V549.37h.62v11.52Zm0-12.14h-.62V537.2h.62v11.55Zm0-12.17h-.62V525.05h.62v11.53Zm0-12.15h-.62V512.88h.62v11.55Zm0-12.17h-.62V500.74h.62v11.52Zm0-12.14h-.62V488.57h.62v11.55Zm0-12.17h-.62V476.42h.62V488Zm0-12.15h-.62v-2.67h.62v2.67Zm-12.64-2.67h.62v-.07h-.62v.07Zm.62,155.38h-.62v-6.23h.62v6.23Zm0-6.85h-.62V610.14h.62v11.52Zm0-12.14h-.62V598h.62v11.55Zm0-12.17h-.62V585.83h.62v11.52Zm0-12.14h-.62V573.68h.62v11.53Zm0-12.15h-.62V561.51h.62v11.55Zm0-12.17h-.62V549.37h.62v11.52Zm0-12.14h-.62V537.2h.62v11.55Zm0-12.17h-.62V525.05h.62v11.53Zm0-12.15h-.62V512.88h.62v11.55Zm0-12.17h-.62V500.74h.62v11.52Zm0-12.14h-.62V488.57h.62v11.55Zm0-12.17h-.62V476.42h.62V488Zm0-12.15h-.62v-2.67h.62v2.67Zm-12.66-2.67h.62v-.07h-.62v.07Zm.62,155.38h-.62v-6.23h.62v6.23Zm0-6.85h-.62V610.14h.62v11.52Zm0-12.14h-.62V598h.62v11.55Zm0-12.17h-.62V585.83h.62v11.52Zm0-12.14h-.62V573.68h.62v11.53Zm0-12.15h-.62V561.51h.62v11.55Zm0-12.17h-.62V549.37h.62v11.52Zm0-12.14h-.62V537.2h.62v11.55Zm0-12.17h-.62V525.05h.62v11.53Zm0-12.15h-.62V512.88h.62v11.55Zm0-12.17h-.62V500.74h.62v11.52Zm0-12.14h-.62V488.57h.62v11.55Zm0-12.17h-.62V476.42h.62V488Zm0-12.15h-.62v-2.67h.62v2.67Zm-12.64-2.67h.62v-.07h-.62v.07Zm.62,155.38h-.62v-6.23h.62v6.23Zm0-6.85h-.62V610.14h.62v11.52Zm0-12.14h-.62V598h.62v11.55Zm0-12.17h-.62V585.83h.62v11.52Zm0-12.14h-.62V573.68h.62v11.53Zm0-12.15h-.62V561.51h.62v11.55Zm0-12.17h-.62V549.37h.62v11.52Zm0-12.14h-.62V537.2h.62v11.55Zm0-12.17h-.62V525.05h.62v11.53Zm0-12.15h-.62V512.88h.62v11.55Zm0-12.17h-.62V500.74h.62v11.52Zm0-12.14h-.62V488.57h.62v11.55Zm0-12.17h-.62V476.42h.62V488Zm0-12.15h-.62v-2.67h.62v2.67Zm-12.67-2.67h.62v-.07h-.62v.07Zm.62,155.38h-.62v-6.23h.62v6.23Zm0-6.85h-.62V610.14h.62v11.52Zm0-12.14h-.62V598h.62v11.55Zm0-12.17h-.62V585.83h.62v11.52Zm0-12.14h-.62V573.68h.62v11.53Zm0-12.15h-.62V561.51h.62v11.55Zm0-12.17h-.62V549.37h.62v11.52Zm0-12.14h-.62V537.2h.62v11.55Zm0-12.17h-.62V525.05h.62v11.53Zm0-12.15h-.62V512.88h.62v11.55Zm0-12.17h-.62V500.74h.62v11.52Zm0-12.14h-.62V488.57h.62v11.55Zm0-12.17h-.62V476.42h.62V488Zm0-12.15h-.62v-2.67h.62v2.67Zm-12.64-2.67h.62v-.07h-.62v.07Zm.62,155.38h-.62v-6.23h.62v6.23Zm0-6.85h-.62V610.14h.62v11.52Zm0-12.14h-.62V598h.62v11.55Zm0-12.17h-.62V585.83h.62v11.52Zm0-12.14h-.62V573.68h.62v11.53Zm0-12.15h-.62V561.51h.62v11.55Zm0-12.17h-.62V549.37h.62v11.52Zm0-12.14h-.62V537.2h.62v11.55Zm0-12.17h-.62V525.05h.62v11.53Zm0-12.15h-.62V512.88h.62v11.55Zm0-12.17h-.62V500.74h.62v11.52Zm0-12.14h-.62V488.57h.62v11.55Zm0-12.17h-.62V476.42h.62V488Zm0-12.15h-.62v-2.67h.62v2.67Zm-12.67-2.67h.62v-.07h-.62v.07Zm.62,155.38h-.62v-6.23h.62v6.23Zm0-6.85h-.62V610.14h.62v11.52Zm0-12.14h-.62V598h.62v11.55Zm0-12.17h-.62V585.83h.62v11.52Zm0-12.14h-.62V573.68h.62v11.53Zm0-12.15h-.62V561.51h.62v11.55Zm0-12.17h-.62V549.37h.62v11.52Zm0-12.14h-.62V537.2h.62v11.55Zm0-12.17h-.62V525.05h.62v11.53Zm0-12.15h-.62V512.88h.62v11.55Zm0-12.17h-.62V500.74h.62v11.52Zm0-12.14h-.62V488.57h.62v11.55Zm0-12.17h-.62V476.42h.62V488Zm0-12.15h-.62v-2.67h.62v2.67Zm-12.64-2.67h.62v-.07h-.62v.07Zm.62,155.38h-.62v-6.23h.62v6.23Zm0-6.85h-.62V610.14h.62v11.52Zm0-12.14h-.62V598h.62v11.55Zm0-12.17h-.62V585.83h.62v11.52Zm0-12.14h-.62V573.68h.62v11.53Zm0-12.15h-.62V561.51h.62v11.55Zm0-12.17h-.62V549.37h.62v11.52Zm0-12.14h-.62V537.2h.62v11.55Zm0-12.17h-.62V525.05h.62v11.53Zm0-12.15h-.62V512.88h.62v11.55Zm0-12.17h-.62V500.74h.62v11.52Zm0-12.14h-.62V488.57h.62v11.55Zm0-12.17h-.62V476.42h.62V488Zm0-12.15h-.62v-2.67h.62v2.67Zm-12.66-2.67H395v-.07h-.62v.07ZM395,628.51h-.62v-6.23H395v6.23Zm0-6.85h-.62V610.14H395v11.52Zm0-12.14h-.62V598H395v11.55Zm0-12.17h-.62V585.83H395v11.52Zm0-12.14h-.62V573.68H395v11.53Zm0-12.15h-.62V561.51H395v11.55Zm0-12.17h-.62V549.37H395v11.52Zm0-12.14h-.62V537.2H395v11.55Zm0-12.17h-.62V525.05H395v11.53Zm0-12.15h-.62V512.88H395v11.55Zm0-12.17h-.62V500.74H395v11.52Zm0-12.14h-.62V488.57H395v11.55ZM395,488h-.62V476.42H395V488Zm0-12.15h-.62v-2.67H395v2.67Zm-12.64-2.67H383v-.07h-.62v.07ZM383,628.51h-.62v-6.23H383v6.23Zm0-6.85h-.62V610.14H383v11.52Zm0-12.14h-.62V598H383v11.55Zm0-12.17h-.62V585.83H383v11.52Zm0-12.14h-.62V573.68H383v11.53Zm0-12.15h-.62V561.51H383v11.55Zm0-12.17h-.62V549.37H383v11.52Zm0-12.14h-.62V537.2H383v11.55Zm0-12.17h-.62V525.05H383v11.53Zm0-12.15h-.62V512.88H383v11.55Zm0-12.17h-.62V500.74H383v11.52Zm0-12.14h-.62V488.57H383v11.55ZM383,488h-.62V476.42H383V488Zm0-12.15h-.62v-2.67H383v2.67Zm-12.67-2.67H371v-.07h-.62v.07ZM371,628.51h-.62v-6.23H371v6.23Zm0-6.85h-.62V610.14H371v11.52Zm0-12.14h-.62V598H371v11.55Zm0-12.17h-.62V585.83H371v11.52Zm0-12.14h-.62V573.68H371v11.53Zm0-12.15h-.62V561.51H371v11.55Zm0-12.17h-.62V549.37H371v11.52Zm0-12.14h-.62V537.2H371v11.55Zm0-12.17h-.62V525.05H371v11.53Zm0-12.15h-.62V512.88H371v11.55Zm0-12.17h-.62V500.74H371v11.52Zm0-12.14h-.62V488.57H371v11.55ZM371,488h-.62V476.42H371V488Zm0-12.15h-.62v-2.67H371v2.67Zm199.25,110H159.68v-.62H570.22v.62Zm0,12.14H159.68v-.62H570.22V598Zm-.3,12.17H160l0-.26h0v0h0l0-.27H570l0,.3h0v0h0l-.05.29Zm-6.41,12.14H166.4l-.2-.19h-.13l-.29-.3H564l-.14.15h0l0,0h-.16l0,0h0l-.16.15Zm-.63.59v-.59h.62l-.06.06h-.07l0,.05h0l-.25.23h0l0,0h-.09l-.06,0Zm0-144.17.46.43h0l.12.12V488h-.62V478.7Zm.62,143h-.62V610.14h.62v11.52Zm0-12.14h-.62V598h.62v11.55Zm0-12.17h-.62V585.83h.62v11.52Zm0-12.14h-.62V573.68h.62v11.53Zm0-12.15h-.62V561.51h.62v11.55Zm0-12.17h-.62V549.37h.62v11.52Zm0-12.14h-.62V537.2h.62v11.55Zm0-12.17h-.62V525.05h.62v11.53Zm0-12.15h-.62V512.88h.62v11.55Zm0-12.17h-.62V500.74h.62v11.52Zm0-12.14h-.62V488.57h.62v11.55Zm-12-26.74-.62-.08v-.08H551l.48.06v.08Zm-.62,155v-6.07h.62v6l-.62.09Zm.62-6.69h-.62V610.14h.62v11.52Zm0-12.14h-.62V598h.62v11.55Zm0-12.17h-.62V585.83h.62v11.52Zm0-12.14h-.62V573.68h.62v11.53Zm0-12.15h-.62V561.51h.62v11.55Zm0-12.17h-.62V549.37h.62v11.52Zm0-12.14h-.62V537.2h.62v11.55Zm0-12.17h-.62V525.05h.62v11.53Zm0-12.15h-.62V512.88h.62v11.55Zm0-12.17h-.62V500.74h.62v11.52Zm0-12.14h-.62V488.57h.62v11.55Zm0-12.17h-.62V476.42h.62V488Zm0-12.15h-.62v-2.5l.62.08v2.42Zm-12.66-2.67h.62v-.07h-.62v.07Zm.62,155.38h-.62v-6.23h.62v6.23Zm0-6.85h-.62V610.14h.62v11.52Zm0-12.14h-.62V598h.62v11.55Zm0-12.17h-.62V585.83h.62v11.52Zm0-12.14h-.62V573.68h.62v11.53Zm0-12.15h-.62V561.51h.62v11.55Zm0-12.17h-.62V549.37h.62v11.52Zm0-12.14h-.62V537.2h.62v11.55Zm0-12.17h-.62V525.05h.62v11.53Zm0-12.15h-.62V512.88h.62v11.55Zm0-12.17h-.62V500.74h.62v11.52Zm0-12.14h-.62V488.57h.62v11.55Zm0-12.17h-.62V476.42h.62V488Zm0-12.15h-.62v-2.67h.62v2.67Zm-12.65-2.67h.62v-.07h-.62v.07Zm.62,155.38h-.62v-6.23h.62v6.23Zm0-6.85h-.62V610.14h.62v11.52Zm0-12.14h-.62V598h.62v11.55Zm0-12.17h-.62V585.83h.62v11.52Zm0-12.14h-.62V573.68h.62v11.53Zm0-12.15h-.62V561.51h.62v11.55Zm0-12.17h-.62V549.37h.62v11.52Zm0-12.14h-.62V537.2h.62v11.55Zm0-12.17h-.62V525.05h.62v11.53Zm0-12.15h-.62V512.88h.62v11.55Zm0-12.17h-.62V500.74h.62v11.52Zm0-12.14h-.62V488.57h.62v11.55Zm0-12.17h-.62V476.42h.62V488Zm0-12.15h-.62v-2.67h.62v2.67Zm-12.66-2.67h.62v-.07h-.62v.07Zm55.47,100.55H159.68v-.62H570.22v.62Zm0-12.17H159.68v-.62H570.22v.62Zm0-12.14H159.68v-.62H570.22v.62Zm0-12.17H159.68v-.62H570.22v.62Zm0-12.15H159.68v-.62H570.22v.62Zm0-12.17H159.68v-.62H570.22v.62Zm0-12.14H159.68v-.62H570.22v.62Zm-1-12.17H160.68l.13-.4h0l0,0h408.2l.16.5Zm-9.43-12.15H170.15l1.07-.62h387.5c.37.2.73.41,1.08.62Z" transform="translate(7 -91)"/>

    <path class="cls-10" d="M78.38,334.89A26.11,26.11,0,0,1,52.3,308.81V198A26.1,26.1,0,0,1,78.38,172H444.71A26.1,26.1,0,0,1,470.79,198V308.81a26.11,26.11,0,0,1-26.08,26.08Z" transform="translate(7 -91)"/>
    <path class="cls-11" d="M353.78,331h-.62v-6.19h.62V331Zm0-6.82h-.62V312.7h.62v11.52Zm0-12.14h-.62V300.56h.62v11.52Zm0-12.14h-.62v-11.5h.62v11.5Zm0-12.12h-.62V276.29h.62v11.53Zm0-12.15h-.62V264.15h.62v11.52Zm0-12.14h-.62V252h.62v11.53Zm0-12.15h-.62V239.86h.62v11.52Zm0-12.14h-.62V227.71h.62v11.53Zm0-12.15h-.62v-11.5h.62v11.5Zm0-12.12h-.62V203.45h.62V215Zm0-12.14h-.62V191.3h.62v11.53Zm0-12.15h-.62V179.16h.62v11.52Zm0-12.14h-.62v-2.72h.62v2.72ZM466,191.3H59.11l.12-.38h0l0-.08H465.81c.08.21.15.41.21.62ZM449.45,330.66v-5.81h.62v5.67l-.62.14Zm17.61-42.22h1.77v-.62h-1.77v.62ZM221.35,331h-.62v-6.19h.62V331Zm0-6.82h-.62V312.7h.62v11.52Zm0-12.14h-.62V300.56h.62v11.52Zm0-12.14h-.62v-11.5h.62v11.5Zm0-12.12h-.62V276.29h.62v11.53Zm0-12.15h-.62V264.15h.62v11.52Zm0-12.14h-.62V252h.62v11.53Zm0-12.15h-.62V239.86h.62v11.52Zm0-12.14h-.62V227.71h.62v11.53Zm0-12.15h-.62v-11.5h.62v11.5Zm0-12.12h-.62V203.45h.62V215Zm0-12.14h-.62V191.3h.62v11.53Zm0-12.15h-.62V179.16h.62v11.52Zm0-12.14h-.62v-2.72h.62v2.72ZM467.06,252h-409v-.62h409V252ZM341.73,331h-.62v-6.19h.62V331Zm0-6.82h-.62V312.7h.62v11.52Zm0-12.14h-.62V300.56h.62v11.52Zm0-12.14h-.62v-11.5h.62v11.5Zm0-12.12h-.62V276.29h.62v11.53Zm0-12.15h-.62V264.15h.62v11.52Zm0-12.14h-.62V252h.62v11.53Zm0-12.15h-.62V239.86h.62v11.52Zm0-12.14h-.62V227.71h.62v11.53Zm0-12.15h-.62v-11.5h.62v11.5Zm0-12.12h-.62V203.45h.62V215Zm0-12.14h-.62V191.3h.62v11.53Zm0-12.15h-.62V179.16h.62v11.52Zm0-12.14h-.62v-2.72h.62v2.72Zm125.33,24.91h1.77v-.62h-1.77v.62Zm-4.94,120.77h-.63v-.66c.22-.24.42-.49.63-.74v1.4ZM450.07,176.34l-.62-.14V176h.25l.32,0h.05v.28Zm17,87.81h1.77v-.62h-1.77v.62Zm-5.57,59.41V312.7h.63v10.12c-.21.25-.41.5-.63.74ZM329.69,331h-.62v-6.19h.62V331Zm0-6.82h-.62V312.7h.62v11.52Zm0-12.14h-.62V300.56h.62v11.52Zm0-12.14h-.62v-11.5h.62v11.5Zm0-12.12h-.62V276.29h.62v11.53Zm0-12.15h-.62V264.15h.62v11.52Zm0-12.14h-.62V252h.62v11.53Zm0-12.15h-.62V239.86h.62v11.52Zm0-12.14h-.62V227.71h.62v11.53Zm0-12.15h-.62v-11.5h.62v11.5Zm0-12.12h-.62V203.45h.62V215Zm0-12.14h-.62V191.3h.62v11.53Zm0-12.15h-.62V179.16h.62v11.52Zm0-12.14h-.62v-2.72h.62v2.72Zm137.37,24.91h-409v-.62h409v.62Zm-5.57,122v-.56h.61l-.05,0H462l-.3.29h-.08l-.1.08ZM438.05,331h-.62v-6.19h.62V331Zm0-6.82h-.62V312.7h.62v11.52Zm0-12.14h-.62V300.56h.62v11.52Zm0-12.14h-.62v-11.5h.62v11.5Zm0-12.12h-.62V276.29h.62v11.53Zm0-12.15h-.62V264.15h.62v11.52Zm0-12.14h-.62V252h.62v11.53Zm0-12.15h-.62V239.86h.62v11.52Zm0-12.14h-.62V227.71h.62v11.53Zm0-12.15h-.62v-11.5h.62v11.5Zm0-12.12h-.62V203.45h.62V215Zm0-12.14h-.62V191.3h.62v11.53Zm0-12.15h-.62V179.16h.62v11.52Zm0-12.14h-.62v-2.72h.62v2.72Zm11.4,152.35v-.23l.62-.14v.28l-.4.06h-.1l-.12,0ZM209.31,331h-.63v-6.19h.63V331Zm0-6.82h-.63V312.7h.63v11.52Zm0-12.14h-.63V300.56h.63v11.52Zm0-12.14h-.63v-11.5h.63v11.5Zm0-12.12h-.63V276.29h.63v11.53Zm0-12.15h-.63V264.15h.63v11.52Zm0-12.14h-.63V252h.63v11.53Zm0-12.15h-.63V239.86h.63v11.52Zm0-12.14h-.63V227.71h.63v11.53Zm0-12.15h-.63v-11.5h.63v11.5Zm0-12.12h-.63V203.45h.63V215Zm0-12.14h-.63V191.3h.63v11.53Zm0-12.15h-.63V179.16h.63v11.52Zm0-12.14h-.63v-2.72h.63v2.72Zm257.75,85.61h-409v-.62h409v.62Zm-6.79,60.7H64.84l-.22-.22h-.1l-.3-.31H460.88l-.61.63ZM317.64,331H317v-6.19h.62V331Zm0-6.82H317V312.7h.62v11.52Zm0-12.14H317V300.56h.62v11.52Zm0-12.14H317v-11.5h.62v11.5Zm0-12.12H317V276.29h.62v11.53Zm0-12.15H317V264.15h.62v11.52Zm0-12.14H317V252h.62v11.53Zm0-12.15H317V239.86h.62v11.52Zm0-12.14H317V227.71h.62v11.53Zm0-12.15H317v-11.5h.62v11.5Zm0-12.12H317V203.45h.62V215Zm0-12.14H317V191.3h.62v11.53Zm0-12.15H317V179.16h.62v11.52Zm0-12.14H317v-2.72h.62v2.72Zm149.42,37.05h1.77V215h-1.77v.62ZM125,331h-.62v-6.19H125V331Zm0-6.82h-.62V312.7H125v11.52Zm0-12.14h-.62V300.56H125v11.52Zm0-12.14h-.62v-11.5H125v11.5Zm0-12.12h-.62V276.29H125v11.53Zm0-12.15h-.62V264.15H125v11.52Zm0-12.14h-.62V252H125v11.53Zm0-12.15h-.62V239.86H125v11.52Zm0-12.14h-.62V227.71H125v11.53Zm0-12.15h-.62v-11.5H125v11.5ZM125,215h-.62V203.45H125V215Zm0-12.14h-.62V191.3H125v11.53Zm0-12.15h-.62V179.16H125v11.52Zm0-12.14h-.62v-2.72H125v2.72Zm12,152.5h-.62v-6.19h.62V331Zm0-6.82h-.62V312.7h.62v11.52Zm0-12.14h-.62V300.56h.62v11.52Zm0-12.14h-.62v-11.5h.62v11.5Zm0-12.12h-.62V276.29h.62v11.53Zm0-12.15h-.62V264.15h.62v11.52Zm0-12.14h-.62V252h.62v11.53Zm0-12.15h-.62V239.86h.62v11.52Zm0-12.14h-.62V227.71h.62v11.53Zm0-12.15h-.62v-11.5h.62v11.5Zm0-12.12h-.62V203.45h.62V215Zm0-12.14h-.62V191.3h.62v11.53Zm0-12.15h-.62V179.16h.62v11.52Zm0-12.14h-.62v-2.72h.62v2.72ZM426,331h-.62v-6.19H426V331Zm0-6.82h-.62V312.7H426v11.52Zm0-12.14h-.62V300.56H426v11.52Zm0-12.14h-.62v-11.5H426v11.5Zm0-12.12h-.62V276.29H426v11.53Zm0-12.15h-.62V264.15H426v11.52Zm0-12.14h-.62V252H426v11.53Zm0-12.15h-.62V239.86H426v11.52Zm0-12.14h-.62V227.71H426v11.53Zm0-12.15h-.62v-11.5H426v11.5ZM426,215h-.62V203.45H426V215Zm0-12.14h-.62V191.3H426v11.53Zm0-12.15h-.62V179.16H426v11.52Zm0-12.14h-.62v-2.72H426v2.72ZM113,331h-.62v-6.19H113V331Zm0-6.82h-.62V312.7H113v11.52Zm0-12.14h-.62V300.56H113v11.52Zm0-12.14h-.62v-11.5H113v11.5Zm0-12.12h-.62V276.29H113v11.53Zm0-12.15h-.62V264.15H113v11.52Zm0-12.14h-.62V252H113v11.53Zm0-12.15h-.62V239.86H113v11.52Zm0-12.14h-.62V227.71H113v11.53Zm0-12.15h-.62v-11.5H113v11.5ZM113,215h-.62V203.45H113V215Zm0-12.14h-.62V191.3H113v11.53Zm0-12.15h-.62V179.16H113v11.52Zm0-12.14h-.62v-2.72H113v2.72ZM185.21,331h-.62v-6.19h.62V331Zm0-6.82h-.62V312.7h.62v11.52Zm0-12.14h-.62V300.56h.62v11.52Zm0-12.14h-.62v-11.5h.62v11.5Zm0-12.12h-.62V276.29h.62v11.53Zm0-12.15h-.62V264.15h.62v11.52Zm0-12.14h-.62V252h.62v11.53Zm0-12.15h-.62V239.86h.62v11.52Zm0-12.14h-.62V227.71h.62v11.53Zm0-12.15h-.62v-11.5h.62v11.5Zm0-12.12h-.62V203.45h.62V215Zm0-12.14h-.62V191.3h.62v11.53Zm0-12.15h-.62V179.16h.62v11.52Zm0-12.14h-.62v-2.72h.62v2.72Zm281.85,97.75h1.77v-.62h-1.77v.62Zm-5,48.56h-1.83l.61-.63h1.84l-.29.31h-.08l-.25.24ZM305.62,331H305v-6.19h.62V331Zm0-6.82H305V312.7h.62v11.52Zm0-12.14H305V300.56h.62v11.52Zm0-12.14H305v-11.5h.62v11.5Zm0-12.12H305V276.29h.62v11.53Zm0-12.15H305V264.15h.62v11.52Zm0-12.14H305V252h.62v11.53Zm0-12.15H305V239.86h.62v11.52Zm0-12.14H305V227.71h.62v11.53Zm0-12.15H305v-11.5h.62v11.5Zm0-12.12H305V203.45h.62V215Zm0-12.14H305V191.3h.62v11.53Zm0-12.15H305V179.16h.62v11.52Zm0-12.14H305v-2.72h.62v2.72Zm161.44,37.05h-409V215h409v.62ZM414,331h-.63v-6.19H414V331Zm0-6.82h-.63V312.7H414v11.52Zm0-12.14h-.63V300.56H414v11.52Zm0-12.14h-.63v-11.5H414v11.5Zm0-12.12h-.63V276.29H414v11.53Zm0-12.15h-.63V264.15H414v11.52Zm0-12.14h-.63V252H414v11.53Zm0-12.15h-.63V239.86H414v11.52Zm0-12.14h-.63V227.71H414v11.53Zm0-12.15h-.63v-11.5H414v11.5ZM414,215h-.63V203.45H414V215Zm0-12.14h-.63V191.3H414v11.53Zm0-12.15h-.63V179.16H414v11.52Zm0-12.14h-.63v-2.72H414v2.72ZM233.37,331h-.62v-6.19h.62V331Zm0-6.82h-.62V312.7h.62v11.52Zm0-12.14h-.62V300.56h.62v11.52Zm0-12.14h-.62v-11.5h.62v11.5Zm0-12.12h-.62V276.29h.62v11.53Zm0-12.15h-.62V264.15h.62v11.52Zm0-12.14h-.62V252h.62v11.53Zm0-12.15h-.62V239.86h.62v11.52Zm0-12.14h-.62V227.71h.62v11.53Zm0-12.15h-.62v-11.5h.62v11.5Zm0-12.12h-.62V203.45h.62V215Zm0-12.14h-.62V191.3h.62v11.53Zm0-12.15h-.62V179.16h.62v11.52Zm0-12.14h-.62v-2.72h.62v2.72Zm233.69,97.75h-409v-.62h409v.62ZM293.58,331H293v-6.19h.63V331Zm0-6.82H293V312.7h.63v11.52Zm0-12.14H293V300.56h.63v11.52Zm0-12.14H293v-11.5h.63v11.5Zm0-12.12H293V276.29h.63v11.53Zm0-12.15H293V264.15h.63v11.52Zm0-12.14H293V252h.63v11.53Zm0-12.15H293V239.86h.63v11.52Zm0-12.14H293V227.71h.63v11.53Zm0-12.15H293v-11.5h.63v11.5Zm0-12.12H293V203.45h.63V215Zm0-12.14H293V191.3h.63v11.53Zm0-12.15H293V179.16h.63v11.52Zm0-12.14H293v-2.72h.63v2.72Zm173.48,49.17h1.77v-.62h-1.77v.62Zm-.34,85H58.4l0-.29h0v0h0l0-.22H466.82c0,.21-.06.42-.1.62ZM401.94,331h-.63v-6.19h.63V331Zm0-6.82h-.63V312.7h.63v11.52Zm0-12.14h-.63V300.56h.63v11.52Zm0-12.14h-.63v-11.5h.63v11.5Zm0-12.12h-.63V276.29h.63v11.53Zm0-12.15h-.63V264.15h.63v11.52Zm0-12.14h-.63V252h.63v11.53Zm0-12.15h-.63V239.86h.63v11.52Zm0-12.14h-.63V227.71h.63v11.53Zm0-12.15h-.63v-11.5h.63v11.5Zm0-12.12h-.63V203.45h.63V215Zm0-12.14h-.63V191.3h.63v11.53Zm0-12.15h-.63V179.16h.63v11.52Zm0-12.14h-.63v-2.72h.63v2.72ZM161.15,331h-.62v-6.19h.62V331Zm0-6.82h-.62V312.7h.62v11.52Zm0-12.14h-.62V300.56h.62v11.52Zm0-12.14h-.62v-11.5h.62v11.5Zm0-12.12h-.62V276.29h.62v11.53Zm0-12.15h-.62V264.15h.62v11.52Zm0-12.14h-.62V252h.62v11.53Zm0-12.15h-.62V239.86h.62v11.52Zm0-12.14h-.62V227.71h.62v11.53Zm0-12.15h-.62v-11.5h.62v11.5Zm0-12.12h-.62V203.45h.62V215Zm0-12.14h-.62V191.3h.62v11.53Zm0-12.15h-.62V179.16h.62v11.52Zm0-12.14h-.62v-2.72h.62v2.72Zm301,133.54h-.63V300.56h.63v11.52Zm0-12.14h-.63v-11.5h.63v11.5Zm0-12.12h-.63V276.29h.63v11.53Zm0-12.15h-.63V264.15h.63v11.52Zm0-12.14h-.63V252h.63v11.53Zm0-12.15h-.63V239.86h.63v11.52Zm0-12.14h-.63V227.71h.63v11.53Zm0-12.15h-.63v-11.5h.63v11.5Zm0-12.12h-.63V203.45h.63V215Zm0-12.14h-.63V191.3h.63v11.53Zm0-12.15h-.63V183.3c.22.24.42.49.63.74v6.64Zm-3.69-11.52h-1.78c-.34-.22-.69-.43-1-.62h1.78l0,0h0l.05,0h0l0,0h0l0,0h.12l.07,0h.1l.23.14h.18l.14.09Zm10.1,133.54h-1.81c0-.2.07-.41.1-.62h1.8l0,.19h0v0h-.05ZM281.53,331h-.62v-6.19h.62V331Zm0-6.82h-.62V312.7h.62v11.52Zm0-12.14h-.62V300.56h.62v11.52Zm0-12.14h-.62v-11.5h.62v11.5Zm0-12.12h-.62V276.29h.62v11.53Zm0-12.15h-.62V264.15h.62v11.52Zm0-12.14h-.62V252h.62v11.53Zm0-12.15h-.62V239.86h.62v11.52Zm0-12.14h-.62V227.71h.62v11.53Zm0-12.15h-.62v-11.5h.62v11.5Zm0-12.12h-.62V203.45h.62V215Zm0-12.14h-.62V191.3h.62v11.53Zm0-12.15h-.62V179.16h.62v11.52Zm0-12.14h-.62v-2.72h.62v2.72Zm185.53,49.17h-409v-.62h409v.62ZM64.83,324.22h-.62V312.7h.62v11.52Zm-.2-142,.2-.2v8.66h-.62v-8h0l.26-.26h0l0,0h.1Zm.2,129.86h-.62V300.56h.62v11.52Zm0-12.14h-.62v-11.5h.62v11.5Zm0-12.12h-.62V276.29h.62v11.53Zm0-12.15h-.62V264.15h.62v11.52Zm0-12.14h-.62V252h.62v11.53Zm0-12.15h-.62V239.86h.62v11.52Zm0-12.14h-.62V227.71h.62v11.53Zm0-12.15h-.62v-11.5h.62v11.5Zm0-12.12h-.62V203.45h.62V215Zm0-12.14h-.62V191.3h.62v11.53ZM100.94,331h-.62v-6.19h.62V331Zm0-6.82h-.62V312.7h.62v11.52Zm0-12.14h-.62V300.56h.62v11.52Zm0-12.14h-.62v-11.5h.62v11.5Zm0-12.12h-.62V276.29h.62v11.53Zm0-12.15h-.62V264.15h.62v11.52Zm0-12.14h-.62V252h.62v11.53Zm0-12.15h-.62V239.86h.62v11.52Zm0-12.14h-.62V227.71h.62v11.53Zm0-12.15h-.62v-11.5h.62v11.5Zm0-12.12h-.62V203.45h.62V215Zm0-12.14h-.62V191.3h.62v11.53Zm0-12.15h-.62V179.16h.62v11.52Zm0-12.14h-.62v-2.72h.62v2.72Zm289,152.5h-.62v-6.19h.62V331Zm0-6.82h-.62V312.7h.62v11.52Zm0-12.14h-.62V300.56h.62v11.52Zm0-12.14h-.62v-11.5h.62v11.5Zm0-12.12h-.62V276.29h.62v11.53Zm0-12.15h-.62V264.15h.62v11.52Zm0-12.14h-.62V252h.62v11.53Zm0-12.15h-.62V239.86h.62v11.52Zm0-12.14h-.62V227.71h.62v11.53Zm0-12.15h-.62v-11.5h.62v11.5Zm0-12.12h-.62V203.45h.62V215Zm0-12.14h-.62V191.3h.62v11.53Zm0-12.15h-.62V179.16h.62v11.52Zm0-12.14h-.62v-2.72h.62v2.72ZM197.26,331h-.62v-6.19h.62V331Zm0-6.82h-.62V312.7h.62v11.52Zm0-12.14h-.62V300.56h.62v11.52Zm0-12.14h-.62v-11.5h.62v11.5Zm0-12.12h-.62V276.29h.62v11.53Zm0-12.15h-.62V264.15h.62v11.52Zm0-12.14h-.62V252h.62v11.53Zm0-12.15h-.62V239.86h.62v11.52Zm0-12.14h-.62V227.71h.62v11.53Zm0-12.15h-.62v-11.5h.62v11.5Zm0-12.12h-.62V203.45h.62V215Zm0-12.14h-.62V191.3h.62v11.53Zm0-12.15h-.62V179.16h.62v11.52Zm0-12.14h-.62v-2.72h.62v2.72ZM88.92,331H88.3v-6.19h.62V331Zm0-6.82H88.3V312.7h.62v11.52Zm0-12.14H88.3V300.56h.62v11.52Zm0-12.14H88.3v-11.5h.62v11.5Zm0-12.12H88.3V276.29h.62v11.53Zm0-12.15H88.3V264.15h.62v11.52Zm0-12.14H88.3V252h.62v11.53Zm0-12.15H88.3V239.86h.62v11.52Zm0-12.14H88.3V227.71h.62v11.53Zm0-12.15H88.3v-11.5h.62v11.5Zm0-12.12H88.3V203.45h.62V215Zm0-12.14H88.3V191.3h.62v11.53Zm0-12.15H88.3V179.16h.62v11.52Zm0-12.14H88.3v-2.72h.62v2.72Zm367.73.62H68.49l.16-.1h.17l.24-.15h.12l0,0h.05l.29-.16H455.61c.35.19.7.4,1,.62Zm10.41,121.4h-409v-.62h409v.62ZM269.51,331h-.62v-6.19h.62V331Zm0-6.82h-.62V312.7h.62v11.52Zm0-12.14h-.62V300.56h.62v11.52Zm0-12.14h-.62v-11.5h.62v11.5Zm0-12.12h-.62V276.29h.62v11.53Zm0-12.15h-.62V264.15h.62v11.52Zm0-12.14h-.62V252h.62v11.53Zm0-12.15h-.62V239.86h.62v11.52Zm0-12.14h-.62V227.71h.62v11.53Zm0-12.15h-.62v-11.5h.62v11.5Zm0-12.12h-.62V203.45h.62V215Zm0-12.14h-.62V191.3h.62v11.53Zm0-12.15h-.62V179.16h.62v11.52Zm0-12.14h-.62v-2.72h.62v2.72Zm197.55,61.32h1.77v-.62h-1.77v.62ZM377.84,331h-.62v-6.19h.62V331Zm0-6.82h-.62V312.7h.62v11.52Zm0-12.14h-.62V300.56h.62v11.52Zm0-12.14h-.62v-11.5h.62v11.5Zm0-12.12h-.62V276.29h.62v11.53Zm0-12.15h-.62V264.15h.62v11.52Zm0-12.14h-.62V252h.62v11.53Zm0-12.15h-.62V239.86h.62v11.52Zm0-12.14h-.62V227.71h.62v11.53Zm0-12.15h-.62v-11.5h.62v11.5Zm0-12.12h-.62V203.45h.62V215Zm0-12.14h-.62V191.3h.62v11.53Zm0-12.15h-.62V179.16h.62v11.52Zm0-12.14h-.62v-2.72h.62v2.72ZM173.19,331h-.62v-6.19h.62V331Zm0-6.82h-.62V312.7h.62v11.52Zm0-12.14h-.62V300.56h.62v11.52Zm0-12.14h-.62v-11.5h.62v11.5Zm0-12.12h-.62V276.29h.62v11.53Zm0-12.15h-.62V264.15h.62v11.52Zm0-12.14h-.62V252h.62v11.53Zm0-12.15h-.62V239.86h.62v11.52Zm0-12.14h-.62V227.71h.62v11.53Zm0-12.15h-.62v-11.5h.62v11.5Zm0-12.12h-.62V203.45h.62V215Zm0-12.14h-.62V191.3h.62v11.53Zm0-12.15h-.62V179.16h.62v11.52Zm0-12.14h-.62v-2.72h.62v2.72ZM76.79,330.79h0l-.5-.09h0v-5.85h.62v5.95Zm-.48-154.64.4-.07h.17v2.48h-.62v-2.38h0Zm.57,148.07h-.62V312.7h.62v11.52Zm0-12.14h-.62V300.56h.62v11.52Zm0-12.14h-.62v-11.5h.62v11.5Zm0-12.12h-.62V276.29h.62v11.53Zm0-12.15h-.62V264.15h.62v11.52Zm0-12.14h-.62V252h.62v11.53Zm0-12.15h-.62V239.86h.62v11.52Zm0-12.14h-.62V227.71h.62v11.53Zm0-12.15h-.62v-11.5h.62v11.5Zm0-12.12h-.62V203.45h.62V215Zm0-12.14h-.62V191.3h.62v11.53Zm0-12.15h-.62V179.16h.62v11.52ZM467.06,300.56h1.77v-.62h-1.77v.62ZM462.12,184c-.21-.25-.41-.5-.63-.74v-1.84l.06.06h.15l.21.2H462l.1.09v2ZM257.46,331h-.62v-6.19h.62V331Zm0-6.82h-.62V312.7h.62v11.52Zm0-12.14h-.62V300.56h.62v11.52Zm0-12.14h-.62v-11.5h.62v11.5Zm0-12.12h-.62V276.29h.62v11.53Zm0-12.15h-.62V264.15h.62v11.52Zm0-12.14h-.62V252h.62v11.53Zm0-12.15h-.62V239.86h.62v11.52Zm0-12.14h-.62V227.71h.62v11.53Zm0-12.15h-.62v-11.5h.62v11.5Zm0-12.12h-.62V203.45h.62V215Zm0-12.14h-.62V191.3h.62v11.53Zm0-12.15h-.62V179.16h.62v11.52Zm0-12.14h-.62v-2.72h.62v2.72Zm209.6,61.32h-409v-.62h409v.62ZM365.8,331h-.62v-6.19h.62V331Zm0-6.82h-.62V312.7h.62v11.52Zm0-12.14h-.62V300.56h.62v11.52Zm0-12.14h-.62v-11.5h.62v11.5Zm0-12.12h-.62V276.29h.62v11.53Zm0-12.15h-.62V264.15h.62v11.52Zm0-12.14h-.62V252h.62v11.53Zm0-12.15h-.62V239.86h.62v11.52Zm0-12.14h-.62V227.71h.62v11.53Zm0-12.15h-.62v-11.5h.62v11.5Zm0-12.12h-.62V203.45h.62V215Zm0-12.14h-.62V191.3h.62v11.53Zm0-12.15h-.62V179.16h.62v11.52Zm0-12.14h-.62v-2.72h.62v2.72ZM149.1,331h-.62v-6.19h.62V331Zm0-6.82h-.62V312.7h.62v11.52Zm0-12.14h-.62V300.56h.62v11.52Zm0-12.14h-.62v-11.5h.62v11.5Zm0-12.12h-.62V276.29h.62v11.53Zm0-12.15h-.62V264.15h.62v11.52Zm0-12.14h-.62V252h.62v11.53Zm0-12.15h-.62V239.86h.62v11.52Zm0-12.14h-.62V227.71h.62v11.53Zm0-12.15h-.62v-11.5h.62v11.5Zm0-12.12h-.62V203.45h.62V215Zm0-12.14h-.62V191.3h.62v11.53Zm0-12.15h-.62V179.16h.62v11.52Zm0-12.14h-.62v-2.72h.62v2.72Zm301,145.68h-.62V312.7h.62v11.52Zm0-12.14h-.62V300.56h.62v11.52Zm0-12.14h-.62v-11.5h.62v11.5Zm0-12.12h-.62V276.29h.62v11.53Zm0-12.15h-.62V264.15h.62v11.52Zm0-12.14h-.62V252h.62v11.53Zm0-12.15h-.62V239.86h.62v11.52Zm0-12.14h-.62V227.71h.62v11.53Zm0-12.15h-.62v-11.5h.62v11.5Zm0-12.12h-.62V203.45h.62V215Zm0-12.14h-.62V191.3h.62v11.53Zm0-12.15h-.62V179.16h.62v11.52Zm0-12.14h-.62V176.2l.62.14v2.2Zm17.77,12.76H466c-.06-.21-.13-.41-.21-.62h1.83v0h0l0,.09h0v0h0l.11.32h0Zm-.78,97.14h-409v-.62h409v.62ZM245.42,331h-.62v-6.19h.62V331Zm0-6.82h-.62V312.7h.62v11.52Zm0-12.14h-.62V300.56h.62v11.52Zm0-12.14h-.62v-11.5h.62v11.5Zm0-12.12h-.62V276.29h.62v11.53Zm0-12.15h-.62V264.15h.62v11.52Zm0-12.14h-.62V252h.62v11.53Zm0-12.15h-.62V239.86h.62v11.52Zm0-12.14h-.62V227.71h.62v11.53Zm0-12.15h-.62v-11.5h.62v11.5Zm0-12.12h-.62V203.45h.62V215Zm0-12.14h-.62V191.3h.62v11.53Zm0-12.15h-.62V179.16h.62v11.52Zm0-12.14h-.62v-2.72h.62v2.72ZM467.06,252h1.77v-.62h-1.77V252Z" transform="translate(7 -91)"/>
    <path class="cls-3" d="M444.71,168.24H78.37A29.89,29.89,0,0,0,48.57,198V308.87a29.89,29.89,0,0,0,29.8,29.75H444.71a29.89,29.89,0,0,0,29.8-29.81V198a29.89,29.89,0,0,0-29.8-29.8Zm0,7.45A22.39,22.39,0,0,1,467.06,198V308.81a22.39,22.39,0,0,1-22.35,22.36H78.37A22.4,22.4,0,0,1,56,308.81V198a22.39,22.39,0,0,1,22.35-22.35Z" transform="translate(7 -91)"/>

    <path class="cls-16" d="M127.12,480.26A26.11,26.11,0,0,1,101,454.18V343.41a26.1,26.1,0,0,1,26.08-26.07H493.45a26.1,26.1,0,0,1,26.08,26.07V454.18a26.11,26.11,0,0,1-26.08,26.08Z" transform="translate(7 -91)"/>
    <path class="cls-3" d="M493.45,313.61H127.12a29.89,29.89,0,0,0-29.81,29.8V454.18A29.89,29.89,0,0,0,127.12,484H493.45a29.89,29.89,0,0,0,29.8-29.81V343.41a29.89,29.89,0,0,0-29.8-29.8Zm0,7.45a22.39,22.39,0,0,1,22.35,22.35V454.18a22.39,22.39,0,0,1-22.35,22.36H127.12a22.4,22.4,0,0,1-22.36-22.36V343.41a22.4,22.4,0,0,1,22.36-22.35Z" transform="translate(7 -91)"/>
    <path class="cls-17" d="M328.35,476.26h-.62v-6.19h.62v6.19Zm0-6.81h-.62V458h.62v11.5Zm0-12.12h-.62V445.82h.62v11.51Zm0-12.12h-.62v-11.5h.62v11.5Zm0-12.13h-.62V421.59h.62v11.49Zm0-12.12h-.62V409.47h.62V421Zm0-12.12h-.62V397.32h.62v11.52Zm0-12.14h-.62V385.2h.62v11.5Zm0-12.12h-.62v-11.5h.62v11.5Zm0-12.12h-.62V361h.62v11.5Zm0-12.12h-.62v-11.5h.62v11.5Zm0-12.12h-.62v-11.5h.62v11.5Zm0-12.12h-.62V324.58h.62V336.1Zm0-12.14h-.62v-2.72h.62V324Zm108.36,152.3h-.62v-6.19h.62v6.19Zm0-6.81h-.62V458h.62v11.5Zm0-12.12h-.62V445.82h.62v11.51Zm0-12.12h-.62v-11.5h.62v11.5Zm0-12.13h-.62V421.59h.62v11.49Zm0-12.12h-.62V409.47h.62V421Zm0-12.12h-.62V397.32h.62v11.52Zm0-12.14h-.62V385.2h.62v11.5Zm0-12.12h-.62v-11.5h.62v11.5Zm0-12.12h-.62V361h.62v11.5Zm0-12.12h-.62v-11.5h.62v11.5Zm0-12.12h-.62v-11.5h.62v11.5Zm0-12.12h-.62V324.58h.62V336.1Zm0-12.14h-.62v-2.72h.62V324ZM123.61,476h0l-.5-.09h0v-5.85h.62V476Zm-.45-154.45.38-.06h.16V324h-.62v-2.38h.08Zm.54,147.89h-.62V458h.62v11.5Zm0-12.12h-.62V445.82h.62v11.51Zm0-12.12h-.62v-11.5h.62v11.5Zm0-12.13h-.62V421.59h.62v11.49Zm0-12.12h-.62V409.47h.62V421Zm0-12.12h-.62V397.32h.62v11.52Zm0-12.14h-.62V385.2h.62v11.5Zm0-12.12h-.62v-11.5h.62v11.5Zm0-12.12h-.62V361h.62v11.5Zm0-12.12h-.62v-11.5h.62v11.5Zm0-12.12h-.62v-11.5h.62v11.5Zm0-12.12h-.62V324.58h.62V336.1ZM208,476.26h-.62v-6.19H208v6.19Zm0-6.81h-.62V458H208v11.5Zm0-12.12h-.62V445.82H208v11.51Zm0-12.12h-.62v-11.5H208v11.5Zm0-12.13h-.62V421.59H208v11.49ZM208,421h-.62V409.47H208V421Zm0-12.12h-.62V397.32H208v11.52Zm0-12.14h-.62V385.2H208v11.5Zm0-12.12h-.62v-11.5H208v11.5Zm0-12.12h-.62V361H208v11.5Zm0-12.12h-.62v-11.5H208v11.5Zm0-12.12h-.62v-11.5H208v11.5Zm0-12.12h-.62V324.58H208V336.1ZM208,324h-.62v-2.72H208V324Zm108.36,152.3h-.62v-6.19h.62v6.19Zm0-6.81h-.62V458h.62v11.5Zm0-12.12h-.62V445.82h.62v11.51Zm0-12.12h-.62v-11.5h.62v11.5Zm0-12.13h-.62V421.59h.62v11.49Zm0-12.12h-.62V409.47h.62V421Zm0-12.12h-.62V397.32h.62v11.52Zm0-12.14h-.62V385.2h.62v11.5Zm0-12.12h-.62v-11.5h.62v11.5Zm0-12.12h-.62V361h.62v11.5Zm0-12.12h-.62v-11.5h.62v11.5Zm0-12.12h-.62v-11.5h.62v11.5Zm0-12.12h-.62V324.58h.62V336.1Zm0-12.14h-.62v-2.72h.62V324Zm192.6,146.11H111.66l-.26-.26h0l-.34-.34H509.55c-.2.21-.41.41-.62.62Zm-84.26,6.19h-.62v-6.19h.62v6.19Zm0-6.81h-.62V458h.62v11.5Zm0-12.12h-.62V445.82h.62v11.51Zm0-12.12h-.62v-11.5h.62v11.5Zm0-12.13h-.62V421.59h.62v11.49Zm0-12.12h-.62V409.47h.62V421Zm0-12.12h-.62V397.32h.62v11.52Zm0-12.14h-.62V385.2h.62v11.5Zm0-12.12h-.62v-11.5h.62v11.5Zm0-12.12h-.62V361h.62v11.5Zm0-12.12h-.62v-11.5h.62v11.5Zm0-12.12h-.62v-11.5h.62v11.5Zm0-12.12h-.62V324.58h.62V336.1Zm0-12.14h-.62v-2.72h.62V324ZM195.93,476.26h-.63v-6.19h.63v6.19Zm0-6.81h-.63V458h.63v11.5Zm0-12.12h-.63V445.82h.63v11.51Zm0-12.12h-.63v-11.5h.63v11.5Zm0-12.13h-.63V421.59h.63v11.49Zm0-12.12h-.63V409.47h.63V421Zm0-12.12h-.63V397.32h.63v11.52Zm0-12.14h-.63V385.2h.63v11.5Zm0-12.12h-.63v-11.5h.63v11.5Zm0-12.12h-.63V361h.63v11.5Zm0-12.12h-.63v-11.5h.63v11.5Zm0-12.12h-.63v-11.5h.63v11.5Zm0-12.12h-.63V324.58h.63V336.1Zm0-12.14h-.63v-2.72h.63V324Zm309.35.62h-390l.17-.11h.07l.39-.24h.12l.3-.16H504.22l.31.16h.11l.4.24h.06l.18.11Zm-201,151.68h-.63v-6.19h.63v6.19Zm0-6.81h-.63V458h.63v11.5Zm0-12.12h-.63V445.82h.63v11.51Zm0-12.12h-.63v-11.5h.63v11.5Zm0-12.13h-.63V421.59h.63v11.49Zm0-12.12h-.63V409.47h.63V421Zm0-12.12h-.63V397.32h.63v11.52Zm0-12.14h-.63V385.2h.63v11.5Zm0-12.12h-.63v-11.5h.63v11.5Zm0-12.12h-.63V361h.63v11.5Zm0-12.12h-.63v-11.5h.63v11.5Zm0-12.12h-.63v-11.5h.63v11.5Zm0-12.12h-.63V324.58h.63V336.1Zm0-12.14h-.63v-2.72h.63V324Zm108.33,152.3H412v-6.19h.62v6.19Zm0-6.81H412V458h.62v11.5Zm0-12.12H412V445.82h.62v11.51Zm0-12.12H412v-11.5h.62v11.5Zm0-12.13H412V421.59h.62v11.49Zm0-12.12H412V409.47h.62V421Zm0-12.12H412V397.32h.62v11.52Zm0-12.14H412V385.2h.62v11.5Zm0-12.12H412v-11.5h.62v11.5Zm0-12.12H412V361h.62v11.5Zm0-12.12H412v-11.5h.62v11.5Zm0-12.12H412v-11.5h.62v11.5Zm0-12.12H412V324.58h.62V336.1Zm0-12.14H412v-2.72h.62V324ZM183.9,476.26h-.62v-6.19h.62v6.19Zm0-6.81h-.62V458h.62v11.5Zm0-12.12h-.62V445.82h.62v11.51Zm0-12.12h-.62v-11.5h.62v11.5Zm0-12.13h-.62V421.59h.62v11.49Zm0-12.12h-.62V409.47h.62V421Zm0-12.12h-.62V397.32h.62v11.52Zm0-12.14h-.62V385.2h.62v11.5Zm0-12.12h-.62v-11.5h.62v11.5Zm0-12.12h-.62V361h.62v11.5Zm0-12.12h-.62v-11.5h.62v11.5Zm0-12.12h-.62v-11.5h.62v11.5Zm0-12.12h-.62V324.58h.62V336.1Zm0-12.14h-.62v-2.72h.62V324Zm108.34,152.3h-.62v-6.19h.62v6.19Zm0-6.81h-.62V458h.62v11.5Zm0-12.12h-.62V445.82h.62v11.51Zm0-12.12h-.62v-11.5h.62v11.5Zm0-12.13h-.62V421.59h.62v11.49Zm0-12.12h-.62V409.47h.62V421Zm0-12.12h-.62V397.32h.62v11.52Zm0-12.14h-.62V385.2h.62v11.5Zm0-12.12h-.62v-11.5h.62v11.5Zm0-12.12h-.62V361h.62v11.5Zm0-12.12h-.62v-11.5h.62v11.5Zm0-12.12h-.62v-11.5h.62v11.5Zm0-12.12h-.62V324.58h.62V336.1Zm0-12.14h-.62v-2.72h.62V324Zm223.44,97.63H104.91V421H515.68v.63ZM496.29,476.1v-6h.63V476l-.44.06h-.19Zm0-154.7h.22l.34.05h.07V324h-.63V321.4Zm.63,148.05h-.63V458h.63v11.5Zm0-12.12h-.63V445.82h.63v11.51Zm0-12.12h-.63v-11.5h.63v11.5Zm0-12.13h-.63V421.59h.63v11.49Zm0-12.12h-.63V409.47h.63V421Zm0-12.12h-.63V397.32h.63v11.52Zm0-12.14h-.63V385.2h.63v11.5Zm0-12.12h-.63v-11.5h.63v11.5Zm0-12.12h-.63V361h.63v11.5Zm0-12.12h-.63v-11.5h.63v11.5Zm0-12.12h-.63v-11.5h.63v11.5Zm0-12.12h-.63V324.58h.63V336.1ZM400.6,476.26H400v-6.19h.62v6.19Zm0-6.81H400V458h.62v11.5Zm0-12.12H400V445.82h.62v11.51Zm0-12.12H400v-11.5h.62v11.5Zm0-12.13H400V421.59h.62v11.49Zm0-12.12H400V409.47h.62V421Zm0-12.12H400V397.32h.62v11.52Zm0-12.14H400V385.2h.62v11.5Zm0-12.12H400v-11.5h.62v11.5Zm0-12.12H400V361h.62v11.5Zm0-12.12H400v-11.5h.62v11.5Zm0-12.12H400v-11.5h.62v11.5Zm0-12.12H400V324.58h.62V336.1Zm0-12.14H400v-2.72h.62V324Zm115.08,24.88H104.91v-.62H515.68v.62ZM171.86,476.26h-.62v-6.19h.62v6.19Zm0-6.81h-.62V458h.62v11.5Zm0-12.12h-.62V445.82h.62v11.51Zm0-12.12h-.62v-11.5h.62v11.5Zm0-12.13h-.62V421.59h.62v11.49Zm0-12.12h-.62V409.47h.62V421Zm0-12.12h-.62V397.32h.62v11.52Zm0-12.14h-.62V385.2h.62v11.5Zm0-12.12h-.62v-11.5h.62v11.5Zm0-12.12h-.62V361h.62v11.5Zm0-12.12h-.62v-11.5h.62v11.5Zm0-12.12h-.62v-11.5h.62v11.5Zm0-12.12h-.62V324.58h.62V336.1Zm0-12.14h-.62v-2.72h.62V324ZM280.2,476.26h-.63v-6.19h.63v6.19Zm0-6.81h-.63V458h.63v11.5Zm0-12.12h-.63V445.82h.63v11.51Zm0-12.12h-.63v-11.5h.63v11.5Zm0-12.13h-.63V421.59h.63v11.49Zm0-12.12h-.63V409.47h.63V421Zm0-12.12h-.63V397.32h.63v11.52Zm0-12.14h-.63V385.2h.63v11.5Zm0-12.12h-.63v-11.5h.63v11.5Zm0-12.12h-.63V361h.63v11.5Zm0-12.12h-.63v-11.5h.63v11.5Zm0-12.12h-.63v-11.5h.63v11.5Zm0-12.12h-.63V324.58h.63V336.1Zm0-12.14h-.63v-2.72h.63V324Zm108.36,152.3h-.63v-6.19h.63v6.19Zm0-6.81h-.63V458h.63v11.5Zm0-12.12h-.63V445.82h.63v11.51Zm0-12.12h-.63v-11.5h.63v11.5Zm0-12.13h-.63V421.59h.63v11.49Zm0-12.12h-.63V409.47h.63V421Zm0-12.12h-.63V397.32h.63v11.52Zm0-12.14h-.63V385.2h.63v11.5Zm0-12.12h-.63v-11.5h.63v11.5Zm0-12.12h-.63V361h.63v11.5Zm0-12.12h-.63v-11.5h.63v11.5Zm0-12.12h-.63v-11.5h.63v11.5Zm0-12.12h-.63V324.58h.63V336.1Zm0-12.14h-.63v-2.72h.63V324Zm127.12,37H104.91v-.62H515.68V361Zm0,48.51H104.91v-.63H515.68v.63ZM159.81,476.26h-.62v-6.19h.62v6.19Zm0-6.81h-.62V458h.62v11.5Zm0-12.12h-.62V445.82h.62v11.51Zm0-12.12h-.62v-11.5h.62v11.5Zm0-12.13h-.62V421.59h.62v11.49Zm0-12.12h-.62V409.47h.62V421Zm0-12.12h-.62V397.32h.62v11.52Zm0-12.14h-.62V385.2h.62v11.5Zm0-12.12h-.62v-11.5h.62v11.5Zm0-12.12h-.62V361h.62v11.5Zm0-12.12h-.62v-11.5h.62v11.5Zm0-12.12h-.62v-11.5h.62v11.5Zm0-12.12h-.62V324.58h.62V336.1Zm0-12.14h-.62v-2.72h.62V324ZM508.32,470.64v-.57h.61l-.07.07h-.06l-.29.27h-.14l-.05.05Zm0-143.78h.21l.22.2h.19v8.66h-.62v-9.24Zm.62,142.59h-.62V458h.62v11.5Zm0-12.12h-.62V445.82h.62v11.51Zm0-12.12h-.62v-11.5h.62v11.5Zm0-12.13h-.62V421.59h.62v11.49Zm0-12.12h-.62V409.47h.62V421Zm0-12.12h-.62V397.32h.62v11.52Zm0-12.14h-.62V385.2h.62v11.5Zm0-12.12h-.62v-11.5h.62v11.5Zm0-12.12h-.62V361h.62v11.5Zm0-12.12h-.62v-11.5h.62v11.5Zm0-12.12h-.62v-11.5h.62v11.5Zm-240.77,128h-.62v-6.19h.62v6.19Zm0-6.81h-.62V458h.62v11.5Zm0-12.12h-.62V445.82h.62v11.51Zm0-12.12h-.62v-11.5h.62v11.5Zm0-12.13h-.62V421.59h.62v11.49Zm0-12.12h-.62V409.47h.62V421Zm0-12.12h-.62V397.32h.62v11.52Zm0-12.14h-.62V385.2h.62v11.5Zm0-12.12h-.62v-11.5h.62v11.5Zm0-12.12h-.62V361h.62v11.5Zm0-12.12h-.62v-11.5h.62v11.5Zm0-12.12h-.62v-11.5h.62v11.5Zm0-12.12h-.62V324.58h.62V336.1Zm0-12.14h-.62v-2.72h.62V324Zm108.34,152.3h-.62v-6.19h.62v6.19Zm0-6.81h-.62V458h.62v11.5Zm0-12.12h-.62V445.82h.62v11.51Zm0-12.12h-.62v-11.5h.62v11.5Zm0-12.13h-.62V421.59h.62v11.49Zm0-12.12h-.62V409.47h.62V421Zm0-12.12h-.62V397.32h.62v11.52Zm0-12.14h-.62V385.2h.62v11.5Zm0-12.12h-.62v-11.5h.62v11.5Zm0-12.12h-.62V361h.62v11.5Zm0-12.12h-.62v-11.5h.62v11.5Zm0-12.12h-.62v-11.5h.62v11.5Zm0-12.12h-.62V324.58h.62V336.1Zm0-12.14h-.62v-2.72h.62V324Zm139.17,49.12H104.91v-.62H515.68v.62ZM147.77,476.26h-.62v-6.19h.62v6.19Zm0-6.81h-.62V458h.62v11.5Zm0-12.12h-.62V445.82h.62v11.51Zm0-12.12h-.62v-11.5h.62v11.5Zm0-12.13h-.62V421.59h.62v11.49Zm0-12.12h-.62V409.47h.62V421Zm0-12.12h-.62V397.32h.62v11.52Zm0-12.14h-.62V385.2h.62v11.5Zm0-12.12h-.62v-11.5h.62v11.5Zm0-12.12h-.62V361h.62v11.5Zm0-12.12h-.62v-11.5h.62v11.5Zm0-12.12h-.62v-11.5h.62v11.5Zm0-12.12h-.62V324.58h.62V336.1Zm0-12.14h-.62v-2.72h.62V324Zm337.1,152.3h-.62v-6.19h.62v6.19Zm0-6.81h-.62V458h.62v11.5Zm0-12.12h-.62V445.82h.62v11.51Zm0-12.12h-.62v-11.5h.62v11.5Zm0-12.13h-.62V421.59h.62v11.49Zm0-12.12h-.62V409.47h.62V421Zm0-12.12h-.62V397.32h.62v11.52Zm0-12.14h-.62V385.2h.62v11.5Zm0-12.12h-.62v-11.5h.62v11.5Zm0-12.12h-.62V361h.62v11.5Zm0-12.12h-.62v-11.5h.62v11.5Zm0-12.12h-.62v-11.5h.62v11.5Zm0-12.12h-.62V324.58h.62V336.1Zm0-12.14h-.62v-2.72h.62V324ZM256.13,476.26h-.62v-6.19h.62v6.19Zm0-6.81h-.62V458h.62v11.5Zm0-12.12h-.62V445.82h.62v11.51Zm0-12.12h-.62v-11.5h.62v11.5Zm0-12.13h-.62V421.59h.62v11.49Zm0-12.12h-.62V409.47h.62V421Zm0-12.12h-.62V397.32h.62v11.52Zm0-12.14h-.62V385.2h.62v11.5Zm0-12.12h-.62v-11.5h.62v11.5Zm0-12.12h-.62V361h.62v11.5Zm0-12.12h-.62v-11.5h.62v11.5Zm0-12.12h-.62v-11.5h.62v11.5Zm0-12.12h-.62V324.58h.62V336.1Zm0-12.14h-.62v-2.72h.62V324Zm108.36,152.3h-.62v-6.19h.62v6.19Zm0-6.81h-.62V458h.62v11.5Zm0-12.12h-.62V445.82h.62v11.51Zm0-12.12h-.62v-11.5h.62v11.5Zm0-12.13h-.62V421.59h.62v11.49Zm0-12.12h-.62V409.47h.62V421Zm0-12.12h-.62V397.32h.62v11.52Zm0-12.14h-.62V385.2h.62v11.5Zm0-12.12h-.62v-11.5h.62v11.5Zm0-12.12h-.62V361h.62v11.5Zm0-12.12h-.62v-11.5h.62v11.5Zm0-12.12h-.62v-11.5h.62v11.5Zm0-12.12h-.62V324.58h.62V336.1Zm0-12.14h-.62v-2.72h.62V324ZM515.68,385.2H104.91v-.62H515.68v.62Zm-1-48.48H105.91l.21-.62H514.47c.07.19.13.37.19.56h0ZM472.82,476.26h-.62v-6.19h.62v6.19Zm0-6.81h-.62V458h.62v11.5Zm0-12.12h-.62V445.82h.62v11.51Zm0-12.12h-.62v-11.5h.62v11.5Zm0-12.13h-.62V421.59h.62v11.49Zm0-12.12h-.62V409.47h.62V421Zm0-12.12h-.62V397.32h.62v11.52Zm0-12.14h-.62V385.2h.62v11.5Zm0-12.12h-.62v-11.5h.62v11.5Zm0-12.12h-.62V361h.62v11.5Zm0-12.12h-.62v-11.5h.62v11.5Zm0-12.12h-.62v-11.5h.62v11.5Zm0-12.12h-.62V324.58h.62V336.1Zm0-12.14h-.62v-2.72h.62V324ZM244.08,476.26h-.62v-6.19h.62v6.19Zm0-6.81h-.62V458h.62v11.5Zm0-12.12h-.62V445.82h.62v11.51Zm0-12.12h-.62v-11.5h.62v11.5Zm0-12.13h-.62V421.59h.62v11.49Zm0-12.12h-.62V409.47h.62V421Zm0-12.12h-.62V397.32h.62v11.52Zm0-12.14h-.62V385.2h.62v11.5Zm0-12.12h-.62v-11.5h.62v11.5Zm0-12.12h-.62V361h.62v11.5Zm0-12.12h-.62v-11.5h.62v11.5Zm0-12.12h-.62v-11.5h.62v11.5Zm0-12.12h-.62V324.58h.62V336.1Zm0-12.14h-.62v-2.72h.62V324ZM135.75,476.26h-.62v-6.19h.62v6.19Zm0-6.81h-.62V458h.62v11.5Zm0-12.12h-.62V445.82h.62v11.51Zm0-12.12h-.62v-11.5h.62v11.5Zm0-12.13h-.62V421.59h.62v11.49Zm0-12.12h-.62V409.47h.62V421Zm0-12.12h-.62V397.32h.62v11.52Zm0-12.14h-.62V385.2h.62v11.5Zm0-12.12h-.62v-11.5h.62v11.5Zm0-12.12h-.62V361h.62v11.5Zm0-12.12h-.62v-11.5h.62v11.5Zm0-12.12h-.62v-11.5h.62v11.5Zm0-12.12h-.62V324.58h.62V336.1Zm0-12.14h-.62v-2.72h.62V324ZM111.66,469.45H111V458h.63v11.5ZM111,328.06l.32-.32h0l0,0h0l.24-.23v8.66H111v-8Zm.63,129.27H111V445.82h.63v11.51Zm0-12.12H111v-11.5h.63v11.5Zm0-12.13H111V421.59h.63v11.49Zm0-12.12H111V409.47h.63V421Zm0-12.12H111V397.32h.63v11.52Zm0-12.14H111V385.2h.63v11.5Zm0-12.12H111v-11.5h.63v11.5Zm0-12.12H111V361h.63v11.5Zm0-12.12H111v-11.5h.63v11.5Zm0-12.12H111v-11.5h.63v11.5Zm240.78,128h-.62v-6.19h.62v6.19Zm0-6.81h-.62V458h.62v11.5Zm0-12.12h-.62V445.82h.62v11.51Zm0-12.12h-.62v-11.5h.62v11.5Zm0-12.13h-.62V421.59h.62v11.49Zm0-12.12h-.62V409.47h.62V421Zm0-12.12h-.62V397.32h.62v11.52Zm0-12.14h-.62V385.2h.62v11.5Zm0-12.12h-.62v-11.5h.62v11.5Zm0-12.12h-.62V361h.62v11.5Zm0-12.12h-.62v-11.5h.62v11.5Zm0-12.12h-.62v-11.5h.62v11.5Zm0-12.12h-.62V324.58h.62V336.1Zm0-12.14h-.62v-2.72h.62V324Zm163.24,73.36H104.91v-.62H515.68v.62Zm-54.9,78.94h-.62v-6.19h.62v6.19Zm0-6.81h-.62V458h.62v11.5Zm0-12.12h-.62V445.82h.62v11.51Zm0-12.12h-.62v-11.5h.62v11.5Zm0-12.13h-.62V421.59h.62v11.49Zm0-12.12h-.62V409.47h.62V421Zm0-12.12h-.62V397.32h.62v11.52Zm0-12.14h-.62V385.2h.62v11.5Zm0-12.12h-.62v-11.5h.62v11.5Zm0-12.12h-.62V361h.62v11.5Zm0-12.12h-.62v-11.5h.62v11.5Zm0-12.12h-.62v-11.5h.62v11.5Zm0-12.12h-.62V324.58h.62V336.1Zm0-12.14h-.62v-2.72h.62V324Zm54.9,109.75H104.91v-.63H515.68v.63ZM232.06,476.26h-.62v-6.19h.62v6.19Zm0-6.81h-.62V458h.62v11.5Zm0-12.12h-.62V445.82h.62v11.51Zm0-12.12h-.62v-11.5h.62v11.5Zm0-12.13h-.62V421.59h.62v11.49Zm0-12.12h-.62V409.47h.62V421Zm0-12.12h-.62V397.32h.62v11.52Zm0-12.14h-.62V385.2h.62v11.5Zm0-12.12h-.62v-11.5h.62v11.5Zm0-12.12h-.62V361h.62v11.5Zm0-12.12h-.62v-11.5h.62v11.5Zm0-12.12h-.62v-11.5h.62v11.5Zm0-12.12h-.62V324.58h.62V336.1Zm0-12.14h-.62v-2.72h.62V324ZM340.4,476.26h-.62v-6.19h.62v6.19Zm0-6.81h-.62V458h.62v11.5Zm0-12.12h-.62V445.82h.62v11.51Zm0-12.12h-.62v-11.5h.62v11.5Zm0-12.13h-.62V421.59h.62v11.49Zm0-12.12h-.62V409.47h.62V421Zm0-12.12h-.62V397.32h.62v11.52Zm0-12.14h-.62V385.2h.62v11.5Zm0-12.12h-.62v-11.5h.62v11.5Zm0-12.12h-.62V361h.62v11.5Zm0-12.12h-.62v-11.5h.62v11.5Zm0-12.12h-.62v-11.5h.62v11.5Zm0-12.12h-.62V324.58h.62V336.1Zm0-12.14h-.62v-2.72h.62V324ZM515.68,445.82H104.91v-.61H515.68v.61Zm-66.92,30.44h-.62v-6.19h.62v6.19Zm0-6.81h-.62V458h.62v11.5Zm0-12.12h-.62V445.82h.62v11.51Zm0-12.12h-.62v-11.5h.62v11.5Zm0-12.13h-.62V421.59h.62v11.49Zm0-12.12h-.62V409.47h.62V421Zm0-12.12h-.62V397.32h.62v11.52Zm0-12.14h-.62V385.2h.62v11.5Zm0-12.12h-.62v-11.5h.62v11.5Zm0-12.12h-.62V361h.62v11.5Zm0-12.12h-.62v-11.5h.62v11.5Zm0-12.12h-.62v-11.5h.62v11.5Zm0-12.12h-.62V324.58h.62V336.1Zm0-12.14h-.62v-2.72h.62V324ZM220,476.26h-.62v-6.19H220v6.19Zm0-6.81h-.62V458H220v11.5Zm0-12.12h-.62V445.82H220v11.51Zm0-12.12h-.62v-11.5H220v11.5Zm0-12.13h-.62V421.59H220v11.49ZM220,421h-.62V409.47H220V421Zm0-12.12h-.62V397.32H220v11.52Zm0-12.14h-.62V385.2H220v11.5Zm0-12.12h-.62v-11.5H220v11.5Zm0-12.12h-.62V361H220v11.5Zm0-12.12h-.62v-11.5H220v11.5Zm0-12.12h-.62v-11.5H220v11.5Zm0-12.12h-.62V324.58H220V336.1ZM220,324h-.62v-2.72H220V324ZM515.36,458H105.23c0-.21-.07-.42-.1-.62H515.46l0,.22h0v0h0l-.06.32Z" transform="translate(7 -91)"/>
    <text class="cls-15" transform="translate(260.94 156.33) scale(0.75 0.8)">Alexander</text>
    <text class="cls-8" transform="translate(310.94 201.33) scale(0.75 0.8)">Smith</text>

    <text class="cls-7" transform="translate(300.29 303.83) scale(0.75 0.8)">Alexander</text>
    <text class="cls-8" transform="translate(350.29 348.83) scale(0.75 0.8)">Smith</text>

    <text class="cls-7" transform="translate(348.75 453.2) scale(0.75 0.8)">Alexander</text>
    <text class="cls-8" transform="translate(398.75 498.2) scale(0.75 0.8)">Smith</text>

    <line class="cls-20" x1="447.2" y1="386.76" x2="447.2" y2="247.06"/>
</svg>